static_grf.mot
version=1
nRows=10
nColumns 19
inDegrees=yes
endheader
time	1_ground_force_vx	1_ground_force_vy	1_ground_force_vz	1_ground_force_px	1_ground_force_py	1_ground_force_pz	1_ground_torque_x	1_ground_torque_y	1_ground_torque_z	2_ground_force_vx	2_ground_force_vy	2_ground_force_vz	2_ground_force_px	2_ground_force_py	2_ground_force_pz	2_ground_torque_x	2_ground_torque_y	2_ground_torque_z
            1.501500	           -2.125770	          287.980848	          -21.367538	           -0.237948	            0.006168	           -0.392812	           -0.010176	            1.378518	           -0.102283	            0.153688	          258.651469	           23.588984	           -0.247629	            0.005590	           -0.697829	           -0.000502	           -0.844427	           -0.077012
            1.502000	           -2.034117	          288.161101	          -21.366992	           -0.238310	            0.006169	           -0.392920	           -0.010072	            1.426874	           -0.105802	            0.155018	          258.283127	           23.587669	           -0.247502	            0.005589	           -0.697490	           -0.000511	           -0.851369	           -0.077751
            1.502500	           -1.987933	          288.160520	          -21.229538	           -0.238049	            0.006167	           -0.392573	           -0.009719	            1.408821	           -0.103791	            0.157094	          257.730035	           23.773411	           -0.247603	            0.005588	           -0.697198	           -0.000522	           -0.856848	           -0.079037
            1.503000	           -2.079391	          288.160109	          -21.137599	           -0.238002	            0.006167	           -0.392431	           -0.010067	            1.395019	           -0.102330	            0.296273	          258.099159	           23.680809	           -0.247668	            0.005587	           -0.696884	           -0.000941	           -0.819755	           -0.075213
            1.503500	           -2.354317	          287.438993	          -21.140008	           -0.238061	            0.006171	           -0.393433	           -0.011260	            1.374733	           -0.101106	            0.156388	          257.914511	           23.680211	           -0.247443	            0.005589	           -0.697369	           -0.000528	           -0.870477	           -0.079922
            1.504000	           -2.171613	          287.980839	          -21.367424	           -0.238137	            0.006170	           -0.393205	           -0.010792	            1.431126	           -0.106186	            0.390637	          257.915357	           23.680112	           -0.247587	            0.005589	           -0.697517	           -0.001328	           -0.877125	           -0.080532
            1.504500	           -2.217507	          288.881932	          -21.317589	           -0.238153	            0.006167	           -0.392570	           -0.010310	            1.343091	           -0.099111	            0.110908	          257.545726	           23.772774	           -0.247405	            0.005588	           -0.697100	           -0.000356	           -0.827122	           -0.076348
            1.505000	           -2.125365	          288.881163	          -21.134393	           -0.238195	            0.006168	           -0.392803	           -0.010243	            1.392268	           -0.101858	            0.391946	          257.547243	           23.631870	           -0.247463	            0.005588	           -0.697177	           -0.001330	           -0.874055	           -0.080201
            1.505500	           -2.125398	          289.061459	          -21.133620	           -0.238199	            0.006167	           -0.392586	           -0.010037	            1.365067	           -0.099802	            0.389329	          258.283471	           23.728354	           -0.247291	            0.005592	           -0.697929	           -0.001241	           -0.823318	           -0.075638
            1.506000	           -2.125575	          288.160690	          -21.275053	           -0.238516	            0.006169	           -0.392908	           -0.010667	            1.446170	           -0.106771	            0.295567	          258.283635	           23.587610	           -0.247417	            0.005590	           -0.697710	           -0.001015	           -0.887206	           -0.081024
